<svg preserveAspectRatio="none" overflow="visible" style="display: block;" width="13.3333" height="13.3333" viewBox="0 0 13.3333 13.3333" fill="none" xmlns="http://www.w3.org/2000/svg">
<g id="rotate-right">
<path id="Vector (Stroke)" d="M0 12.6667V8.66667H4C4.36819 8.66667 4.66667 8.96514 4.66667 9.33333C4.66667 9.70152 4.36819 10 4 10H2.27604L2.63672 10.3607L2.84375 10.5514C3.89948 11.4778 5.25714 11.9937 6.66797 11.9993C8.08199 11.999 9.43826 11.438 10.4382 10.4382C11.4383 9.43796 12 8.08115 12 6.66667C12 6.29848 12.2985 6 12.6667 6C13.0349 6 13.3333 6.29848 13.3333 6.66667C13.3333 8.43478 12.6311 10.1306 11.3809 11.3809C10.1306 12.6311 8.43478 13.3333 6.66667 13.3333H6.66406C4.8147 13.3264 3.03993 12.6044 1.71029 11.319L1.70573 11.3151L1.33333 10.9427V12.6667C1.33333 13.0349 1.03486 13.3333 0.666667 13.3333C0.298477 13.3333 0 13.0349 0 12.6667ZM0 6.66667C0 4.89856 0.702231 3.20272 1.95247 1.95247C3.20272 0.702231 4.89856 0 6.66667 0H6.66927L7.01497 0.00976562C8.62393 0.0935123 10.1582 0.717236 11.3691 1.77995L11.623 2.01432L11.6276 2.01823L12 2.39062V0.666667C12 0.298477 12.2985 0 12.6667 0C13.0349 0 13.3333 0.298477 13.3333 0.666667V4.66667H9.33333C8.96514 4.66667 8.66667 4.36819 8.66667 4C8.66667 3.63181 8.96514 3.33333 9.33333 3.33333H11.0573L10.6966 2.97266L10.4896 2.7819C9.43369 1.85534 8.07578 1.33878 6.66471 1.33333C5.25093 1.33385 3.89492 1.89545 2.89518 2.89518C1.89499 3.89538 1.33333 5.25218 1.33333 6.66667C1.33333 7.03486 1.03486 7.33333 0.666667 7.33333C0.298477 7.33333 0 7.03486 0 6.66667Z" fill="#32333E"/>
</g>
</svg>
